<?xml version="1.0" standalone="no"?>
<!DOCTYPE svg PUBLIC "-//W3C//DTD SVG 20010904//EN"
 "http://www.w3.org/TR/2001/REC-SVG-20010904/DTD/svg10.dtd">
<svg version="1.0" xmlns="http://www.w3.org/2000/svg"
 width="135.000000pt" height="135.000000pt" viewBox="0 0 135.000000 135.000000"
 preserveAspectRatio="xMidYMid meet">
<metadata>
Created by potrace 1.11, written by Peter Selinger 2001-2013
</metadata>
<g transform="translate(0.000000,135.000000) scale(0.100000,-0.100000)"
fill="#000000" stroke="none">
<path d="M707 1332 c-9 -10 -20 -40 -23 -66 -8 -57 -25 -76 -60 -70 -16 3 -23
1 -19 -6 3 -6 0 -7 -9 -4 -26 10 -19 -24 9 -42 14 -9 24 -19 22 -21 -6 -5 -57
19 -57 27 0 10 -79 33 -125 36 -75 6 -92 -4 -198 -110 -94 -94 -104 -107 -124
-171 l-22 -69 25 -60 c14 -34 26 -67 26 -73 1 -7 4 -11 6 -8 14 14 31 -37 32
-92 0 -34 5 -65 10 -68 6 -3 10 -17 10 -29 0 -35 28 -96 44 -96 7 0 26 -16 40
-35 26 -34 56 -39 56 -9 0 23 37 16 54 -11 19 -28 21 -49 4 -39 -7 4 -8 3 -4
-4 7 -12 -49 -71 -126 -132 -25 -19 -50 -47 -57 -62 -7 -14 -32 -43 -56 -63
-25 -20 -45 -41 -45 -46 0 -5 241 -9 615 -9 l615 0 0 123 c0 96 -4 137 -20
183 -10 33 -24 102 -30 154 -7 61 -19 111 -34 141 -13 25 -29 69 -36 98 -11
46 -10 55 4 69 16 16 19 16 104 -15 9 -4 12 59 12 296 l0 301 -313 0 c-291 0
-315 -1 -330 -18z m-337 -187 c-21 -25 -6 -27 55 -10 69 20 128 14 168 -18 26
-22 27 -25 18 -72 -5 -28 -9 -51 -8 -52 1 -1 53 -26 116 -57 87 -42 121 -54
143 -49 23 4 26 8 17 19 -9 11 -7 14 12 14 13 0 33 -7 43 -15 10 -8 23 -12 28
-9 5 4 19 -3 31 -14 26 -23 72 -48 63 -34 -7 12 12 28 39 34 12 2 19 10 17 21
-2 11 4 17 18 17 15 0 26 -12 40 -44 10 -24 23 -47 30 -51 6 -4 9 -14 6 -23
-3 -10 -7 -30 -10 -46 -8 -47 -21 -51 -45 -14 -33 51 -70 90 -81 83 -5 -3 9
-22 30 -42 22 -19 40 -41 40 -48 0 -6 9 -20 20 -30 17 -15 19 -27 14 -74 -9
-101 -15 -121 -37 -143 -12 -11 -16 -18 -9 -14 19 11 14 -2 -18 -49 -41 -59
-89 -95 -129 -95 -19 0 -30 -4 -26 -10 3 -5 -2 -10 -12 -10 -10 0 -24 -9 -31
-20 -15 -24 -93 -28 -111 -6 -7 8 -23 17 -36 20 -16 4 -22 11 -19 21 7 16 85
19 115 4 35 -18 26 5 -8 24 -63 33 -134 118 -159 189 -17 49 -16 153 2 196 10
25 11 33 1 30 -44 -15 -56 -178 -19 -261 12 -26 31 -62 43 -79 15 -20 17 -29
8 -26 -8 3 -29 30 -48 62 -28 47 -35 70 -39 131 -5 74 12 175 29 175 16 0 10
22 -16 57 -29 37 -115 97 -188 132 -26 13 -55 30 -63 39 -20 20 -83 22 -111 5
-14 -10 -23 -11 -28 -4 -3 6 1 11 9 11 9 0 16 7 16 15 0 8 -7 15 -16 15 -9 0
-14 6 -11 13 2 6 12 12 23 12 26 0 54 25 54 49 0 10 8 25 18 32 23 18 27 17
12 -1z m519 -94 c14 -27 20 -76 12 -90 -9 -13 -58 -8 -92 10 -19 9 -33 120
-17 130 13 8 87 -30 97 -50z m-599 -98 c0 -9 9 -26 20 -38 13 -14 22 -39 24
-71 8 -104 81 -336 132 -417 20 -31 40 -55 44 -52 10 6 40 -46 40 -70 0 -9 -6
-15 -12 -13 -25 8 -134 167 -190 274 -89 172 -116 284 -89 367 13 38 31 50 31
20z m14 -355 c14 -32 44 -88 66 -125 33 -56 35 -62 11 -35 -29 34 -130 217
-144 262 -4 14 -12 40 -18 57 -6 18 -7 38 -3 44 4 7 19 -23 34 -67 15 -43 39
-105 54 -136z m495 -237 c-3 -6 -10 -7 -18 -2 -7 5 -10 14 -6 21 9 14 29 -2
24 -19z"/>
<path d="M855 829 c-53 -26 -81 -62 -101 -128 -35 -118 15 -243 121 -298 48
-25 133 -22 178 6 44 27 44 36 -1 19 -41 -16 -47 -8 -27 34 l16 33 -31 -37
c-18 -21 -40 -38 -50 -38 -63 0 -152 80 -172 154 -7 25 -9 48 -6 52 4 3 35 9
70 12 l63 7 -65 5 c-79 6 -84 18 -45 96 29 56 52 77 106 92 29 9 30 10 9 11
-14 0 -43 -9 -65 -20z"/>
<path d="M975 840 c27 -12 43 -12 25 0 -8 5 -22 9 -30 9 -10 0 -8 -3 5 -9z"/>
<path d="M951 644 c-1 -30 18 -82 32 -86 7 -2 36 -3 66 -3 51 0 54 2 72 35 21
38 17 45 -23 55 -25 6 -28 4 -28 -18 0 -30 -24 -57 -49 -57 -23 0 -50 30 -61
66 -6 23 -8 24 -9 8z"/>
<path d="M1002 633 c5 -26 38 -29 38 -4 0 15 -6 21 -21 21 -14 0 -19 -5 -17
-17z"/>
<path d="M37 683 c-11 -19 -18 -73 -11 -85 12 -18 14 -118 3 -118 -5 0 -9 26
-10 58 -2 127 -15 97 -17 -38 -1 -113 1 -141 10 -125 7 11 18 26 25 33 9 10
10 19 3 32 -8 15 -6 20 12 26 13 4 24 2 26 -5 2 -6 7 -9 12 -6 13 8 71 -29
120 -77 59 -55 63 -32 8 41 -37 50 -47 73 -62 148 -18 89 -19 90 -55 103 -20
7 -41 15 -47 17 -7 2 -14 1 -17 -4z"/>
</g>
</svg>
